
        <svg xmlns="http://www.w3.org/2000/svg" xmlns:xlink="http://www.w3.org/1999/xlink" version="1.1" width="2656.5341734281988" 
        height="3253.0032546122093" viewBox="0 0 2656.5341734281988 3253.0032546122093">
			
			<g transform="scale(12.65016273061047) translate(10, 10)">
				<defs id="SvgjsDefs9463"></defs><g id="SvgjsG9464" featureKey="nameGroupContainer" transform="matrix(1,0,0,1,0,0)" fill="#086972"><rect xmlns="http://www.w3.org/2000/svg" width="190" height="210" rx="10" ry="10"></rect></g><g id="SvgjsG9465" featureKey="nameFeature-0" transform="matrix(5.039632301241888,0,0,5.039632301241888,50.459930081151185,-63.85949764138914)" fill="#ffffff"><path d="M0.76 50.36 c-0.52 0.12 -0.88 -1.48 -0.84 -4.44 c0.08 -2.44 0.68 -10.84 1.88 -17.28 c0.28 -1.48 0.56 -2.8 0.84 -4 c-7.8 0 -8.52 0.04 -8.68 -0.56 c-0.08 -0.36 1.04 -0.84 1.36 -0.64 c0.4 0.24 0.68 0.36 1.84 0.36 l5.68 0.04 c1.28 -5.12 2.48 -7.2 3.04 -7.2 c0.32 0 0.56 0.96 0.48 1.32 c-0.12 0.48 -0.28 -0.2 -0.72 0.76 c-0.08 0.12 -0.92 2.32 -1.68 5.12 c1.4 0 1.92 0.12 5.88 0.12 c3.68 0 4.64 -0.2 4.76 0.24 c0.08 0.48 -1.88 0.44 -4.88 0.44 l-6 0 c-0.36 1.44 -0.72 2.96 -0.96 4.44 c-0.36 1.96 -0.96 5.44 -1.48 9.64 c-0.32 2.28 -0.72 7.96 -0.48 9.88 c0.2 1.52 0.52 1.68 -0.04 1.76 z M7.4799999999999995 50.36 c-0.52 0.12 -0.88 -1.48 -0.84 -4.44 c0.08 -2.44 0.68 -10.84 1.88 -17.28 c0.28 -1.48 0.56 -2.8 0.84 -4 c-7.8 0 -8.52 0.04 -8.68 -0.56 c-0.08 -0.36 1.04 -0.84 1.36 -0.64 c0.4 0.24 0.68 0.36 1.84 0.36 l5.68 0.04 c1.28 -5.12 2.48 -7.2 3.04 -7.2 c0.32 0 0.56 0.96 0.48 1.32 c-0.12 0.48 -0.28 -0.2 -0.72 0.76 c-0.08 0.12 -0.92 2.32 -1.68 5.12 c1.4 0 1.92 0.12 5.88 0.12 c3.68 0 4.64 -0.2 4.76 0.24 c0.08 0.48 -1.88 0.44 -4.88 0.44 l-6 0 c-0.36 1.44 -0.72 2.96 -0.96 4.44 c-0.36 1.96 -0.96 5.44 -1.48 9.64 c-0.32 2.28 -0.72 7.96 -0.48 9.88 c0.2 1.52 0.52 1.68 -0.04 1.76 z M17.36 30.880000000000003 c-0.88 -0.28 -1.28 -1.12 -1.28 -1.84 c0 -1.56 2.8 -3.6 5.88 -3.6 c0.76 0 1.76 0.6 1.76 1.76 c0 1.32 -1.2 2.32 -3.24 4 c-1.32 1.12 -2.72 1.68 -0.96 1.6 c2.12 -0.08 2.68 0.76 2.6 1.92 c-0.08 0.88 -0.64 2.32 -2.72 5.16 c-2.12 2.84 -4 3.8 -5.12 3.8 s-1.72 -1.24 -1.6 -2.8 c0.16 -2.32 1.2 -2.4 1.32 -2.28 c0.36 0.36 -0.2 0.68 -0.4 2.32 c-0.16 1.08 0 1.92 0.56 1.92 c0.76 0 2.04 -0.36 4.44 -3.64 c2.36 -3.32 2.48 -4.32 2.48 -4.8 c0 -0.44 -0.36 -0.84 -1.28 -0.92 c-0.72 -0.04 -1.52 0 -2.2 0.04 c-0.2 0 -0.56 -0.08 -0.56 -0.44 s0.92 -0.72 2.76 -2.2 c2.48 -2 2.88 -3 2.88 -3.76 c0 -0.48 -0.44 -0.88 -1 -0.88 c-1.84 0 -4.8 1.4 -4.8 2.96 c0 0.52 0.64 0.72 0.84 1 c0.24 0.28 -0.04 0.76 -0.36 0.68 z"></path></g><g id="SvgjsG9466" featureKey="sloganFeature-0" transform="matrix(0.5832870581923094,0,0,0.5832870581923094,34.0900717358633,225.75367092838033)" fill="#086972"><path d="M2.18 7.359999999999999 l6.04 0 c0.42 0 0.62 0.34 0.62 0.68 s-0.2 0.66 -0.62 0.66 l-2.28 0 l0 10.06 c0 0.42 -0.34 0.64 -0.68 0.64 s-0.66 -0.22 -0.66 -0.64 l0 -10.06 l-2.42 0 c-0.42 0 -0.62 -0.32 -0.62 -0.66 s0.2 -0.68 0.62 -0.68 z M15.6615 18.7 l0 -10.64 c0 -0.46 0.36 -0.7 0.7 -0.7 l4.6 0 c0.44 0 0.66 0.32 0.66 0.66 s-0.22 0.68 -0.66 0.68 l-3.96 0 l0 3.88 l3.14 0 c0.46 0 0.68 0.32 0.68 0.66 s-0.24 0.7 -0.68 0.7 l-3.14 0 l0 4.14 l3.96 0 c0.42 0 0.64 0.34 0.64 0.66 c0 0.34 -0.22 0.66 -0.64 0.66 l-4.6 0 c-0.34 0 -0.7 -0.12 -0.7 -0.7 z M34.702999999999996 18.86 l-0.78 -2.54 l-3.72 0 l-0.74 2.5 c-0.26 0.86 -1.58 0.6 -1.3 -0.28 c1.04 -3.5 2.06 -7.06 3.08 -10.6 c0.12 -0.38 0.44 -0.58 0.76 -0.58 c0.3 0 0.62 0.2 0.74 0.58 l3.18 10.6 c0.22 0.76 -0.96 1.18 -1.22 0.32 z M32.043 10.06 l-1.44 4.92 l2.94 0 c-0.5 -1.68 -0.96 -3.12 -1.5 -4.92 z M51.5845 18.76 l0 -8.92 l-3.18 9 c-0.18 0.5 -0.84 0.62 -1.04 0 l-3.08 -9 l0 8.92 c0 0.42 -0.32 0.64 -0.66 0.64 s-0.68 -0.22 -0.68 -0.64 l0 -10.74 c0 -0.38 0.28 -0.66 0.68 -0.66 l0.64 0 c0.44 0 0.68 0.32 0.78 0.62 c0.96 2.86 1.84 5.4 2.82 8.28 l2.9 -8.34 c0.1 -0.28 0.28 -0.56 0.7 -0.56 l0.8 0 c0.58 0 0.66 0.32 0.66 0.64 l0 10.76 c0 0.42 -0.34 0.64 -0.68 0.64 s-0.66 -0.22 -0.66 -0.64 z  M70.3275 7.359999999999999 l6.04 0 c0.42 0 0.62 0.34 0.62 0.68 s-0.2 0.66 -0.62 0.66 l-2.28 0 l0 10.06 c0 0.42 -0.34 0.64 -0.68 0.64 s-0.66 -0.22 -0.66 -0.64 l0 -10.06 l-2.42 0 c-0.42 0 -0.62 -0.32 -0.62 -0.66 s0.2 -0.68 0.62 -0.68 z M83.849 18.78 l0 -10.78 c0 -0.42 0.32 -0.64 0.64 -0.64 s0.66 0.22 0.66 0.64 l0 10.78 c0 0.86 -1.3 0.86 -1.3 0 z M101.37049999999999 18.76 l0 -8.92 l-3.18 9 c-0.18 0.5 -0.84 0.62 -1.04 0 l-3.08 -9 l0 8.92 c0 0.42 -0.32 0.64 -0.66 0.64 s-0.68 -0.22 -0.68 -0.64 l0 -10.74 c0 -0.38 0.28 -0.66 0.68 -0.66 l0.64 0 c0.44 0 0.68 0.32 0.78 0.62 c0.96 2.86 1.84 5.4 2.82 8.28 l2.9 -8.34 c0.1 -0.28 0.28 -0.56 0.7 -0.56 l0.8 0 c0.58 0 0.66 0.32 0.66 0.64 l0 10.76 c0 0.42 -0.34 0.64 -0.68 0.64 s-0.66 -0.22 -0.66 -0.64 z  M110.332 18.7 l0 -10.64 c0 -0.46 0.36 -0.7 0.7 -0.7 l4.6 0 c0.44 0 0.66 0.32 0.66 0.66 s-0.22 0.68 -0.66 0.68 l-3.96 0 l0 3.88 l3.14 0 c0.46 0 0.68 0.32 0.68 0.66 s-0.24 0.7 -0.68 0.7 l-3.14 0 l0 4.14 l3.96 0 c0.42 0 0.64 0.34 0.64 0.66 c0 0.34 -0.22 0.66 -0.64 0.66 l-4.6 0 c-0.34 0 -0.7 -0.12 -0.7 -0.7 z M133.255 7.359999999999999 l6.04 0 c0.42 0 0.62 0.34 0.62 0.68 s-0.2 0.66 -0.62 0.66 l-2.28 0 l0 10.06 c0 0.42 -0.34 0.64 -0.68 0.64 s-0.66 -0.22 -0.66 -0.64 l0 -10.06 l-2.42 0 c-0.42 0 -0.62 -0.32 -0.62 -0.66 s0.2 -0.68 0.62 -0.68 z M152.63649999999998 18.86 l-0.78 -2.54 l-3.72 0 l-0.74 2.5 c-0.26 0.86 -1.58 0.6 -1.3 -0.28 c1.04 -3.5 2.06 -7.06 3.08 -10.6 c0.12 -0.38 0.44 -0.58 0.76 -0.58 c0.3 0 0.62 0.2 0.74 0.58 l3.18 10.6 c0.22 0.76 -0.96 1.18 -1.22 0.32 z M149.9765 10.06 l-1.44 4.92 l2.94 0 c-0.5 -1.68 -0.96 -3.12 -1.5 -4.92 z M160.878 18.72 l0 -10.72 c0 -0.32 0.16 -0.64 0.6 -0.64 l2.62 0 c1.98 0 3.06 0.72 3.06 2.72 c0 0.8 -0.1 1.58 -0.6 2.12 c1.14 0.8 1.34 2.18 1.34 3.58 c0 2.46 -1.34 3.62 -3.64 3.62 l-2.68 0 c-0.34 0 -0.7 -0.12 -0.7 -0.68 z M162.218 18.08 l1.74 0 c1.66 0 2.58 -0.68 2.58 -2.3 c0 -1.66 -0.42 -2.78 -2.04 -2.78 l-2.28 0 l0 5.08 z M165.838 10.08 c0 -1.2 -0.84 -1.38 -1.74 -1.38 l-1.88 0 l0 2.96 l1.84 0 c1.26 0 1.78 -0.36 1.78 -1.58 z M175.03949999999998 18.76 l0 -10.76 c0 -0.42 0.32 -0.64 0.64 -0.64 s0.66 0.22 0.66 0.64 l0 10.06 l3.98 0 c0.44 0 0.68 0.34 0.68 0.68 s-0.24 0.66 -0.68 0.66 l-4.62 0 c-0.4 0 -0.66 -0.32 -0.66 -0.64 z M187.541 18.7 l0 -10.64 c0 -0.46 0.36 -0.7 0.7 -0.7 l4.6 0 c0.44 0 0.66 0.32 0.66 0.66 s-0.22 0.68 -0.66 0.68 l-3.96 0 l0 3.88 l3.14 0 c0.46 0 0.68 0.32 0.68 0.66 s-0.24 0.7 -0.68 0.7 l-3.14 0 l0 4.14 l3.96 0 c0.42 0 0.64 0.34 0.64 0.66 c0 0.34 -0.22 0.66 -0.64 0.66 l-4.6 0 c-0.34 0 -0.7 -0.12 -0.7 -0.7 z M200.4425 17.68 c-0.44 -0.82 0.68 -1.42 1.2 -0.6 c0.26 0.42 1.04 1.14 2.28 1.14 c0.52 0 1.82 -0.38 2 -1.86 c0.12 -0.9 -0.74 -1.78 -2.22 -2.52 c-2.08 -0.98 -3.66 -1.84 -3.66 -3.56 c0 -2.04 1.72 -3 3.56 -3 c1.66 0 2.58 1.02 2.9 1.54 c0.46 0.74 -0.54 1.46 -1.1 0.74 c-0.28 -0.36 -0.82 -0.96 -1.8 -0.96 c-1.1 0 -2.24 0.52 -2.24 1.68 c0 0.92 1.02 1.44 2.54 2.16 c1.78 0.88 3.64 1.74 3.36 4.08 c-0.22 1.84 -1.62 3.02 -3.34 3.02 c-1.3 0 -2.9 -0.7 -3.48 -1.86 z"></path></g>
			</g>
		</svg>
	