<svg width="535.0073494719632" height="351.542801322072" xmlns="http://www.w3.org/2000/svg">

 <g>
  <title>Layer 1</title>
  <g id="svg_1">
   <svg id="svg_4" fill="#9d4dff" preserveAspectRatio="xMinYMin" x="62" y="46.7286" width="158.61879" height="211.5428" viewBox="361.3299865722656 315.1099853515625 277.3399963378906 369.7900390625" xmlns="http://www.w3.org/2000/svg">
    <path id="svg_5" fill=" #0caaed" d="m546.21997,592.45001l-92.45001,0c0,51.06 41.39001,92.45001 92.45001,92.45001l0,0l0,-92.45001z" class="cls-1"/>
    <rect id="svg_6" fill=" #9d4dff" height="184.89" width="92.45" y="407.55" x="453.78" class="cls-5"/>
    <rect id="svg_7" fill=" #ffb64f" transform="rotate(-180 1000 815.11)" height="184.89" width="92.45" y="1130.21999" x="1453.78" class="cls-3"/>
    <rect id="svg_8" fill=" #ed422f" transform="rotate(-90 92.45 1000)" height="184.89" width="92.45" y="1361.33" x="592.45" class="cls-4"/>
    <circle id="svg_9" fill=" #68de00" r="46.22" cy="453.78" cx="407.55" class="cls-6"/>
    <circle id="svg_10" fill=" #1e66f7" r="46.22" cy="638.67" cx="592.45" class="cls-2"/>
   </svg>
  </g>
  <g id="svg_2">
   <svg id="svg_11" width="194.08" height="17.01" viewBox="0.09000000357627869 5.139999866485596 194.0800018310547 17.010000228881836" y="183.7774" x="262.92735">
    <g id="svg_12" fill="#000000"/>
   </svg>
  </g>
  <g transform="matrix(0.896944 0 0 0.732115 26.0961 27.9195)" stroke="null" y="104.22183" x="262.92735" id="svg_3">
   <svg stroke="null" id="svg_14" width="194.06999" height="63.46001" viewBox="0.36000001430511475 24.09000015258789 194.0699920654297 63.46001052856445" y="104.22183" x="242.85921">
    <g stroke="null" id="svg_15" fill="#000000">
     <path stroke="null" id="svg_16" d="m29.12,87.01l-6.65,0l0,-57.17l-22.11,0l0,-5.75l50.88,0l0,5.75l-22.12,0l0,57.17zm74.07,0l-6.65,0l0,-57.17l-22.11,0l0,-5.75l50.88,0l0,5.75l-22.12,0l0,57.17zm68.41,0.54l0,0q-6.83,0 -12.90001,-2.2q-6.06999,-2.2 -9.75,-5.89l0,0l3.14,-5.12q3.06,3.14001 8.23001,5.21001q5.17,2.07 11.28,2.07l0,0q7.81999,0 12,-3.42001q4.17999,-3.41 4.17999,-9.16l0,0q0,-5.76 -4.09,-9.17q-4.09,-3.42 -12.90001,-3.42l0,0l-4.48999,0l0,-4.76l19.41,-24.36l0.89999,2.51l-35.06,0l0,-5.75l40.45,0l0,4.58l-19.41,24.36l-3.14999,-2.06l2.42999,0q11.33,0 16.94,5.03q5.62,5.04 5.62,12.95l0,0q0,5.3 -2.51999,9.52q-2.51001,4.23 -7.59,6.66q-5.08,2.42001 -12.72,2.42001z"/>
    </g>
   </svg>
  </g>
 </g>
</svg>