<svg xmlns="http://www.w3.org/2000/svg" xmlns:xlink="http://www.w3.org/1999/xlink" version="1.0" x="0" y="0" width="2400" height="1001.3211933145092" viewBox="84.16700622558594 89.18900177001953 171.66598754882813 71.62199645996094" preserveAspectRatio="xMidYMid meet" color-interpolation-filters="sRGB"><g><defs><linearGradient id="92" x1="0%" y1="0%" x2="100%" y2="0%"><stop offset="0%" stop-color="#fa71cd"></stop> <stop offset="100%" stop-color="#9b59b6"></stop></linearGradient><linearGradient id="93" x1="0%" y1="0%" x2="100%" y2="0%"><stop offset="0%" stop-color="#f9d423"></stop> <stop offset="100%" stop-color="#f83600"></stop></linearGradient><linearGradient id="94" x1="0%" y1="0%" x2="100%" y2="0%"><stop offset="0%" stop-color="#0064d2"></stop> <stop offset="100%" stop-color="#1cb0f6"></stop></linearGradient><linearGradient id="95" x1="0%" y1="0%" x2="100%" y2="0%"><stop offset="0%" stop-color="#f00978"></stop> <stop offset="100%" stop-color="#3f51b1"></stop></linearGradient><linearGradient id="96" x1="0%" y1="0%" x2="100%" y2="0%"><stop offset="0%" stop-color="#7873f5"></stop> <stop offset="100%" stop-color="#ec77ab"></stop></linearGradient><linearGradient id="97" x1="0%" y1="0%" x2="100%" y2="0%"><stop offset="0%" stop-color="#f9d423"></stop> <stop offset="100%" stop-color="#e14fad"></stop></linearGradient><linearGradient id="98" x1="0%" y1="0%" x2="100%" y2="0%"><stop offset="0%" stop-color="#009efd"></stop> <stop offset="100%" stop-color="#2af598"></stop></linearGradient><linearGradient id="99" x1="0%" y1="0%" x2="100%" y2="0%"><stop offset="0%" stop-color="#ffcc00"></stop> <stop offset="100%" stop-color="#00b140"></stop></linearGradient><linearGradient id="100" x1="0%" y1="0%" x2="100%" y2="0%"><stop offset="0%" stop-color="#d51007"></stop> <stop offset="100%" stop-color="#ff8177"></stop></linearGradient><linearGradient id="102" x1="0%" y1="0%" x2="100%" y2="0%"><stop offset="0%" stop-color="#a2b6df"></stop> <stop offset="100%" stop-color="#0c3483"></stop></linearGradient><linearGradient id="103" x1="0%" y1="0%" x2="100%" y2="0%"><stop offset="0%" stop-color="#7ac5d8"></stop> <stop offset="100%" stop-color="#eea2a2"></stop></linearGradient><linearGradient id="104" x1="0%" y1="0%" x2="100%" y2="0%"><stop offset="0%" stop-color="#00ecbc"></stop> <stop offset="100%" stop-color="#007adf"></stop></linearGradient><linearGradient id="105" x1="0%" y1="0%" x2="100%" y2="0%"><stop offset="0%" stop-color="#b88746"></stop> <stop offset="100%" stop-color="#fdf5a6"></stop></linearGradient></defs><g fill="#e22027" class="singlesvg" transform="translate(85.85000610351562,90.87200164794922)"><g class="tp-name" transform="translate(0,0)"><g mask="url(#ed2fac3d-2863-4d70-bc09-6cbaa8a7349a)"><rect x="0" y="0" height="54.1" width="54.1"></rect> <g fill="#feffff" transform="translate(8.199999618530274,3)"><g transform="scale(1)"><path d="M35.69-46.15L3.51-46.15C1.43-46.15 0.78-45.44 0.78-43.42L0.78-37.57C0.78-35.49 1.43-34.77 3.51-34.77L13.20-34.77L13.20-2.73C13.20-0.72 13.85 0 15.93 0L23.27 0C25.35 0 26.07-0.72 26.07-2.73L26.07-34.77L35.69-34.77C37.77-34.77 38.48-35.49 38.48-37.57L38.48-43.42C38.48-45.44 37.77-46.15 35.69-46.15Z" transform="translate(-0.78, 47.125)"></path></g></g></g><g transform="translate(57.1,0)" mask="url(#7951bfc8-0397-4e7c-abe9-dd46e68177e9)"><rect x="0" y="0" height="54.1" width="54.1"></rect> <g fill="#feffff" transform="translate(8.199999618530274,3)"><g transform="scale(1)"><path d="M35.69-46.15L3.51-46.15C1.43-46.15 0.78-45.44 0.78-43.42L0.78-37.57C0.78-35.49 1.43-34.77 3.51-34.77L13.20-34.77L13.20-2.73C13.20-0.72 13.85 0 15.93 0L23.27 0C25.35 0 26.07-0.72 26.07-2.73L26.07-34.77L35.69-34.77C37.77-34.77 38.48-35.49 38.48-37.57L38.48-43.42C38.48-45.44 37.77-46.15 35.69-46.15Z" transform="translate(-0.78, 47.125)"></path></g></g></g><g transform="translate(114.2,0)" mask="url(#621ab871-a5ee-4fa2-9343-35d7832cbdaa)"><rect x="0" y="0" height="54.1" width="54.1"></rect> <g fill="#feffff" transform="translate(8.53363494873047,3)"><g transform="scale(1)"><path d="M37.31-33.67C37.31-41.80 31.66-47.13 21.25-47.13C10.66-47.13 4.81-43.03 2.08-35.75C1.43-33.87 1.89-32.89 3.83-32.24L10.21-29.96C12.16-29.32 13-29.71 13.71-31.72C14.88-34.65 16.19-35.95 19.82-35.95C22.82-35.95 24.25-34.84 24.25-32.37C24.25-29.77 22.30-28.80 19.82-28.80L16.96-28.80C14.88-28.80 14.24-28.08 14.24-26L14.24-20.61C14.24-18.59 14.88-17.88 16.96-17.88L20.93-17.88C23.73-17.88 25.22-16.84 25.22-14.04C25.22-11.44 23.53-10.21 20.15-10.21C16.51-10.21 14.63-11.63 13.59-14.43C12.80-16.45 12.03-16.90 10.08-16.19L3.71-13.91C1.76-13.26 1.24-12.29 1.95-10.40C4.62-3.12 10.60 0.98 21.13 0.98C33.02 0.98 38.68-4.29 38.68-13.26C38.68-17.94 36.66-21.84 32.24-24.18C35.49-26.32 37.31-29.57 37.31-33.67Z" transform="translate(-1.6441143757421082, 47.125)"></path></g></g></g></g> <g fill-rule="" class="tp-slogan" fill="#e22027" transform="translate(36.75999069213867,60.099998474121094)"> <g transform="scale(1, 1)"><g transform="scale(1)"><path d="M2.71-7.03L2.71 0L3.72 0L3.72-7.03L6.10-7.03L6.10-7.87L0.34-7.87L0.34-7.03ZM7.51-7.87L7.51 0L12.17 0L12.17-0.85L8.51-0.85L8.51-3.71L11.50-3.71L11.50-4.56L8.51-4.56L8.51-7.03L12.05-7.03L12.05-7.87ZM17.18-3.20L14.82-3.20L15.19-4.40C15.34-4.84 15.47-5.28 15.60-5.72C15.73-6.15 15.85-6.60 15.97-7.06L16.02-7.06C16.15-6.60 16.28-6.15 16.40-5.72C16.53-5.28 16.67-4.84 16.81-4.40ZM17.44-2.40L18.18 0L19.25 0L16.58-7.87L15.46-7.87L12.79 0L13.81 0L14.57-2.40ZM20.36-7.87L20.36 0L21.29 0L21.29-4.33C21.29-4.68 21.27-5.07 21.24-5.50C21.21-5.92 21.18-6.31 21.16-6.66L21.20-6.66L21.83-4.91L23.35-0.79L23.92-0.79L25.43-4.91L26.06-6.66L26.11-6.66C26.08-6.31 26.05-5.92 26.02-5.50C25.99-5.07 25.98-4.68 25.98-4.33L25.98 0L26.93 0L26.93-7.87L25.75-7.87L24.24-3.65L23.69-2.04L23.64-2.04L23.06-3.65L21.54-7.87ZM33.14-7.03L33.14 0L34.15 0L34.15-7.03L36.53-7.03L36.53-7.87L30.77-7.87L30.77-7.03ZM37.94-7.87L37.94 0L38.94 0L38.94-7.87ZM41.10-7.87L41.10 0L42.02 0L42.02-4.33C42.02-4.68 42.01-5.07 41.98-5.50C41.94-5.92 41.92-6.31 41.89-6.66L41.94-6.66L42.56-4.91L44.09-0.79L44.65-0.79L46.16-4.91L46.80-6.66L46.85-6.66C46.82-6.31 46.79-5.92 46.76-5.50C46.73-5.07 46.72-4.68 46.72-4.33L46.72 0L47.66 0L47.66-7.87L46.49-7.87L44.98-3.65L44.42-2.04L44.38-2.04L43.80-3.65L42.28-7.87ZM49.82-7.87L49.82 0L54.48 0L54.48-0.85L50.82-0.85L50.82-3.71L53.81-3.71L53.81-4.56L50.82-4.56L50.82-7.03L54.36-7.03L54.36-7.87ZM60.20-7.03L60.20 0L61.21 0L61.21-7.03L63.59-7.03L63.59-7.87L57.83-7.87L57.83-7.03ZM67.87-3.20L65.51-3.20L65.88-4.40C66.02-4.84 66.16-5.28 66.29-5.72C66.42-6.15 66.54-6.60 66.66-7.06L66.71-7.06C66.84-6.60 66.96-6.15 67.09-5.72C67.22-5.28 67.36-4.84 67.50-4.40ZM68.12-2.40L68.87 0L69.94 0L67.27-7.87L66.14-7.87L63.48 0L64.50 0L65.26-2.40ZM71.05-7.87L71.05 0L73.56 0C74.00 0 74.40-0.05 74.77-0.14C75.14-0.24 75.46-0.38 75.72-0.58C75.98-0.77 76.19-1.01 76.33-1.30C76.48-1.58 76.55-1.92 76.55-2.30C76.55-2.85 76.39-3.28 76.07-3.59C75.75-3.90 75.30-4.10 74.72-4.19L74.72-4.24C75.19-4.36 75.53-4.57 75.76-4.89C75.98-5.21 76.09-5.56 76.09-5.95C76.09-6.30 76.03-6.59 75.89-6.83C75.76-7.08 75.58-7.28 75.34-7.43C75.11-7.58 74.82-7.69 74.49-7.76C74.16-7.84 73.79-7.87 73.39-7.87ZM73.21-4.51L72.05-4.51L72.05-7.08L73.26-7.08C73.88-7.08 74.34-6.99 74.65-6.80C74.95-6.61 75.11-6.30 75.11-5.87C75.11-5.43 74.96-5.09 74.67-4.86C74.38-4.63 73.89-4.51 73.21-4.51ZM73.42-0.79L72.05-0.79L72.05-3.77L73.42-3.77C74.11-3.77 74.64-3.65 75.01-3.43C75.38-3.20 75.56-2.84 75.56-2.35C75.56-1.82 75.38-1.42 75.00-1.17C74.62-0.92 74.10-0.79 73.42-0.79ZM78.11-7.87L78.11 0L82.55 0L82.55-0.85L79.10-0.85L79.10-7.87ZM83.94-7.87L83.94 0L88.60 0L88.60-0.85L84.94-0.85L84.94-3.71L87.92-3.71L87.92-4.56L84.94-4.56L84.94-7.03L88.48-7.03L88.48-7.87ZM90.29-1.72L89.69-1.02C90.03-0.66 90.44-0.38 90.91-0.17C91.38 0.04 91.90 0.14 92.45 0.14C92.86 0.14 93.24 0.09 93.56-0.03C93.89-0.15 94.17-0.31 94.40-0.51C94.64-0.71 94.81-0.95 94.94-1.22C95.06-1.50 95.12-1.79 95.12-2.10C95.12-2.39 95.08-2.64 95.00-2.86C94.91-3.08 94.80-3.27 94.66-3.44C94.51-3.60 94.34-3.75 94.14-3.87C93.94-3.99 93.73-4.10 93.50-4.20L92.39-4.68C92.23-4.74 92.07-4.81 91.92-4.89C91.77-4.97 91.63-5.05 91.50-5.15C91.37-5.25 91.27-5.37 91.19-5.50C91.12-5.63 91.08-5.80 91.08-5.99C91.08-6.35 91.21-6.63 91.48-6.83C91.75-7.04 92.10-7.14 92.54-7.14C92.91-7.14 93.24-7.07 93.53-6.94C93.83-6.81 94.09-6.63 94.33-6.40L94.87-7.04C94.59-7.33 94.25-7.57 93.85-7.75C93.45-7.93 93.02-8.02 92.54-8.02C92.18-8.02 91.85-7.96 91.55-7.86C91.25-7.76 90.99-7.61 90.77-7.42C90.55-7.23 90.38-7.01 90.26-6.76C90.13-6.50 90.07-6.22 90.07-5.93C90.07-5.64 90.12-5.39 90.22-5.17C90.31-4.95 90.44-4.76 90.59-4.60C90.74-4.44 90.91-4.30 91.10-4.19C91.30-4.08 91.48-3.98 91.67-3.90L92.80-3.41C92.98-3.32 93.15-3.24 93.31-3.16C93.47-3.08 93.61-2.99 93.73-2.89C93.84-2.79 93.93-2.67 94.00-2.53C94.07-2.39 94.10-2.22 94.10-2.02C94.10-1.63 93.96-1.32 93.67-1.09C93.38-0.85 92.98-0.73 92.46-0.73C92.05-0.73 91.66-0.82 91.28-1.00C90.90-1.18 90.57-1.42 90.29-1.72Z" transform="translate(-0.336, 8.016)"></path></g></g></g></g><mask id="ed2fac3d-2863-4d70-bc09-6cbaa8a7349a"><rect x="0" y="0" height="54.1" width="54.1" fill="white"></rect> <g transform="translate(8.199999618530274,3)" fill="black"><g transform="scale(1)"><path d="M35.69-46.15L3.51-46.15C1.43-46.15 0.78-45.44 0.78-43.42L0.78-37.57C0.78-35.49 1.43-34.77 3.51-34.77L13.20-34.77L13.20-2.73C13.20-0.72 13.85 0 15.93 0L23.27 0C25.35 0 26.07-0.72 26.07-2.73L26.07-34.77L35.69-34.77C37.77-34.77 38.48-35.49 38.48-37.57L38.48-43.42C38.48-45.44 37.77-46.15 35.69-46.15Z" transform="translate(-0.78, 47.125)"></path></g></g></mask><mask id="7951bfc8-0397-4e7c-abe9-dd46e68177e9"><rect x="0" y="0" height="54.1" width="54.1" fill="white"></rect> <g transform="translate(8.199999618530274,3)" fill="black"><g transform="scale(1)"><path d="M35.69-46.15L3.51-46.15C1.43-46.15 0.78-45.44 0.78-43.42L0.78-37.57C0.78-35.49 1.43-34.77 3.51-34.77L13.20-34.77L13.20-2.73C13.20-0.72 13.85 0 15.93 0L23.27 0C25.35 0 26.07-0.72 26.07-2.73L26.07-34.77L35.69-34.77C37.77-34.77 38.48-35.49 38.48-37.57L38.48-43.42C38.48-45.44 37.77-46.15 35.69-46.15Z" transform="translate(-0.78, 47.125)"></path></g></g></mask><mask id="621ab871-a5ee-4fa2-9343-35d7832cbdaa"><rect x="0" y="0" height="54.1" width="54.1" fill="white"></rect> <g transform="translate(8.53363494873047,3)" fill="black"><g transform="scale(1)"><path d="M37.31-33.67C37.31-41.80 31.66-47.13 21.25-47.13C10.66-47.13 4.81-43.03 2.08-35.75C1.43-33.87 1.89-32.89 3.83-32.24L10.21-29.96C12.16-29.32 13-29.71 13.71-31.72C14.88-34.65 16.19-35.95 19.82-35.95C22.82-35.95 24.25-34.84 24.25-32.37C24.25-29.77 22.30-28.80 19.82-28.80L16.96-28.80C14.88-28.80 14.24-28.08 14.24-26L14.24-20.61C14.24-18.59 14.88-17.88 16.96-17.88L20.93-17.88C23.73-17.88 25.22-16.84 25.22-14.04C25.22-11.44 23.53-10.21 20.15-10.21C16.51-10.21 14.63-11.63 13.59-14.43C12.80-16.45 12.03-16.90 10.08-16.19L3.71-13.91C1.76-13.26 1.24-12.29 1.95-10.40C4.62-3.12 10.60 0.98 21.13 0.98C33.02 0.98 38.68-4.29 38.68-13.26C38.68-17.94 36.66-21.84 32.24-24.18C35.49-26.32 37.31-29.57 37.31-33.67Z" transform="translate(-1.6441143757421082, 47.125)"></path></g></g></mask><defs v-gra="od"></defs></g></svg>