
<svg
  version="1.0"
  xmlns="http://www.w3.org/2000/svg"
  xmlns:xlink="http://www.w3.org/1999/xlink"
  width="2400"
  height="1800"
>
  
  <rect
    x="0"
    y="0"
    width="100%"
    height="100%"
    fill="#e22027"
    fill-opacity="1"
  ></rect>
  <svg
    version="1.0"
    xmlns="http://www.w3.org/2000/svg"
    xmlns:xlink="http://www.w3.org/1999/xlink"
    x="0"
    y="0"
    width="2400"
    height="1800"
    viewBox="0 0 340.000000 250.000000"
    preserveAspectRatio="xMidYMid meet"
    color-interpolation-filters="sRGB"
  >
    <defs><linearGradient id="92" x1="0%" y1="0%" x2="100%" y2="0%"><stop offset="0%" stop-color="#fa71cd"/> <stop offset="100%" stop-color="#9b59b6"/></linearGradient><linearGradient id="93" x1="0%" y1="0%" x2="100%" y2="0%"><stop offset="0%" stop-color="#f9d423"/> <stop offset="100%" stop-color="#f83600"/></linearGradient><linearGradient id="94" x1="0%" y1="0%" x2="100%" y2="0%"><stop offset="0%" stop-color="#0064d2"/> <stop offset="100%" stop-color="#1cb0f6"/></linearGradient><linearGradient id="95" x1="0%" y1="0%" x2="100%" y2="0%"><stop offset="0%" stop-color="#f00978"/> <stop offset="100%" stop-color="#3f51b1"/></linearGradient><linearGradient id="96" x1="0%" y1="0%" x2="100%" y2="0%"><stop offset="0%" stop-color="#7873f5"/> <stop offset="100%" stop-color="#ec77ab"/></linearGradient><linearGradient id="97" x1="0%" y1="0%" x2="100%" y2="0%"><stop offset="0%" stop-color="#f9d423"/> <stop offset="100%" stop-color="#e14fad"/></linearGradient><linearGradient id="98" x1="0%" y1="0%" x2="100%" y2="0%"><stop offset="0%" stop-color="#009efd"/> <stop offset="100%" stop-color="#2af598"/></linearGradient><linearGradient id="99" x1="0%" y1="0%" x2="100%" y2="0%"><stop offset="0%" stop-color="#ffcc00"/> <stop offset="100%" stop-color="#00b140"/></linearGradient><linearGradient id="100" x1="0%" y1="0%" x2="100%" y2="0%"><stop offset="0%" stop-color="#d51007"/> <stop offset="100%" stop-color="#ff8177"/></linearGradient><linearGradient id="102" x1="0%" y1="0%" x2="100%" y2="0%"><stop offset="0%" stop-color="#a2b6df"/> <stop offset="100%" stop-color="#0c3483"/></linearGradient><linearGradient id="103" x1="0%" y1="0%" x2="100%" y2="0%"><stop offset="0%" stop-color="#7ac5d8"/> <stop offset="100%" stop-color="#eea2a2"/></linearGradient><linearGradient id="104" x1="0%" y1="0%" x2="100%" y2="0%"><stop offset="0%" stop-color="#00ecbc"/> <stop offset="100%" stop-color="#007adf"/></linearGradient><linearGradient id="105" x1="0%" y1="0%" x2="100%" y2="0%"><stop offset="0%" stop-color="#b88746"/> <stop offset="100%" stop-color="#fdf5a6"/></linearGradient></defs> <g fill="#feffff" class="singlesvg" transform="translate(85.85000610351562,97.95000076293945)"><g class="tp-name"><g mask="url(#3af58178-b51e-44bf-9c20-af3dbc407edd)"><rect x="0" y="0" height="54.1" width="54.1"/> <g fill="#e22027" transform="translate(8.199999618530274,3)"><g transform="scale(1)"><path d="M35.69-46.15L3.51-46.15C1.43-46.15 0.78-45.44 0.78-43.42L0.78-37.57C0.78-35.49 1.43-34.77 3.51-34.77L13.20-34.77L13.20-2.73C13.20-0.72 13.85 0 15.93 0L23.27 0C25.35 0 26.07-0.72 26.07-2.73L26.07-34.77L35.69-34.77C37.77-34.77 38.48-35.49 38.48-37.57L38.48-43.42C38.48-45.44 37.77-46.15 35.69-46.15Z" transform="translate(-0.78, 47.125)"/></g></g></g><g transform="translate(57.1,0)" mask="url(#d2f1f8a2-1132-428f-91c1-54d55bcb16e7)"><rect x="0" y="0" height="54.1" width="54.1"/> <g fill="#e22027" transform="translate(8.199999618530274,3)"><g transform="scale(1)"><path d="M35.69-46.15L3.51-46.15C1.43-46.15 0.78-45.44 0.78-43.42L0.78-37.57C0.78-35.49 1.43-34.77 3.51-34.77L13.20-34.77L13.20-2.73C13.20-0.72 13.85 0 15.93 0L23.27 0C25.35 0 26.07-0.72 26.07-2.73L26.07-34.77L35.69-34.77C37.77-34.77 38.48-35.49 38.48-37.57L38.48-43.42C38.48-45.44 37.77-46.15 35.69-46.15Z" transform="translate(-0.78, 47.125)"/></g></g></g><g transform="translate(114.2,0)" mask="url(#a22bf091-5e26-4701-8dbb-efc49f304555)"><rect x="0" y="0" height="54.1" width="54.1"/> <g fill="#e22027" transform="translate(8.53363494873047,3)"><g transform="scale(1)"><path d="M37.31-33.67C37.31-41.80 31.66-47.13 21.25-47.13C10.66-47.13 4.81-43.03 2.08-35.75C1.43-33.87 1.89-32.89 3.83-32.24L10.21-29.96C12.16-29.32 13-29.71 13.71-31.72C14.88-34.65 16.19-35.95 19.82-35.95C22.82-35.95 24.25-34.84 24.25-32.37C24.25-29.77 22.30-28.80 19.82-28.80L16.96-28.80C14.88-28.80 14.24-28.08 14.24-26L14.24-20.61C14.24-18.59 14.88-17.88 16.96-17.88L20.93-17.88C23.73-17.88 25.22-16.84 25.22-14.04C25.22-11.44 23.53-10.21 20.15-10.21C16.51-10.21 14.63-11.63 13.59-14.43C12.80-16.45 12.03-16.90 10.08-16.19L3.71-13.91C1.76-13.26 1.24-12.29 1.95-10.40C4.62-3.12 10.60 0.98 21.13 0.98C33.02 0.98 38.68-4.29 38.68-13.26C38.68-17.94 36.66-21.84 32.24-24.18C35.49-26.32 37.31-29.57 37.31-33.67Z" transform="translate(-1.6441143757421082, 47.125)"/></g></g></g></g> </g><mask id="3af58178-b51e-44bf-9c20-af3dbc407edd"><rect x="0" y="0" height="54.1" width="54.1" fill="white"/> <g transform="translate(8.199999618530274,3)" fill="black"><g transform="scale(1)"><path d="M35.69-46.15L3.51-46.15C1.43-46.15 0.78-45.44 0.78-43.42L0.78-37.57C0.78-35.49 1.43-34.77 3.51-34.77L13.20-34.77L13.20-2.73C13.20-0.72 13.85 0 15.93 0L23.27 0C25.35 0 26.07-0.72 26.07-2.73L26.07-34.77L35.69-34.77C37.77-34.77 38.48-35.49 38.48-37.57L38.48-43.42C38.48-45.44 37.77-46.15 35.69-46.15Z" transform="translate(-0.78, 47.125)"/></g></g></mask><mask id="d2f1f8a2-1132-428f-91c1-54d55bcb16e7"><rect x="0" y="0" height="54.1" width="54.1" fill="white"/> <g transform="translate(8.199999618530274,3)" fill="black"><g transform="scale(1)"><path d="M35.69-46.15L3.51-46.15C1.43-46.15 0.78-45.44 0.78-43.42L0.78-37.57C0.78-35.49 1.43-34.77 3.51-34.77L13.20-34.77L13.20-2.73C13.20-0.72 13.85 0 15.93 0L23.27 0C25.35 0 26.07-0.72 26.07-2.73L26.07-34.77L35.69-34.77C37.77-34.77 38.48-35.49 38.48-37.57L38.48-43.42C38.48-45.44 37.77-46.15 35.69-46.15Z" transform="translate(-0.78, 47.125)"/></g></g></mask><mask id="a22bf091-5e26-4701-8dbb-efc49f304555"><rect x="0" y="0" height="54.1" width="54.1" fill="white"/> <g transform="translate(8.53363494873047,3)" fill="black"><g transform="scale(1)"><path d="M37.31-33.67C37.31-41.80 31.66-47.13 21.25-47.13C10.66-47.13 4.81-43.03 2.08-35.75C1.43-33.87 1.89-32.89 3.83-32.24L10.21-29.96C12.16-29.32 13-29.71 13.71-31.72C14.88-34.65 16.19-35.95 19.82-35.95C22.82-35.95 24.25-34.84 24.25-32.37C24.25-29.77 22.30-28.80 19.82-28.80L16.96-28.80C14.88-28.80 14.24-28.08 14.24-26L14.24-20.61C14.24-18.59 14.88-17.88 16.96-17.88L20.93-17.88C23.73-17.88 25.22-16.84 25.22-14.04C25.22-11.44 23.53-10.21 20.15-10.21C16.51-10.21 14.63-11.63 13.59-14.43C12.80-16.45 12.03-16.90 10.08-16.19L3.71-13.91C1.76-13.26 1.24-12.29 1.95-10.40C4.62-3.12 10.60 0.98 21.13 0.98C33.02 0.98 38.68-4.29 38.68-13.26C38.68-17.94 36.66-21.84 32.24-24.18C35.49-26.32 37.31-29.57 37.31-33.67Z" transform="translate(-1.6441143757421082, 47.125)"/></g></g></mask><defs v-gra="od"/>
  </svg>
</svg>


